<svg width="144" height="113" viewBox="0 0 144 113" fill="none" xmlns="http://www.w3.org/2000/svg">
<path opacity="0.1" d="M137.723 1.07102L10.56 39.2479C3.09238 41.4898 -1.17294 49.4046 1.07099 56.8789L28.2109 147.279C30.4473 154.728 38.3472 159.018 45.842 156.768L173.005 118.591C180.454 116.355 184.744 108.455 182.494 100.96L155.354 10.5601C153.118 3.11108 145.218 -1.17906 137.723 1.07102ZM138.565 10.6732L95.5831 90.535L15.1902 47.7126L138.565 10.6732ZM36.689 142.693L10.6601 55.9937L67.155 86.0863L36.689 142.693ZM45.0002 147.166L75.4853 90.5235L95.2934 101.074C97.5864 102.296 100.436 101.434 101.668 99.1456L112.083 79.7934L168.419 110.113L45.0002 147.166ZM172.892 101.802L116.556 71.4821L146.876 15.146L172.892 101.802Z" fill="#F2EDDC"/>
</svg>
