<svg width="300" height="223" viewBox="0 0 300 223" fill="none" xmlns="http://www.w3.org/2000/svg">
<mask id="mask0_204_73" style="mask-type:alpha" maskUnits="userSpaceOnUse" x="0" y="0" width="300" height="223">
<rect width="300" height="223" rx="3" fill="#C4C4C4"/>
</mask>
<g mask="url(#mask0_204_73)">
<path opacity="0.1" d="M293.723 111.071L166.56 149.248C159.092 151.49 154.827 159.405 157.071 166.879L184.211 257.279C186.447 264.728 194.347 269.018 201.842 266.768L329.005 228.591C336.454 226.355 340.744 218.455 338.494 210.96L311.354 120.56C309.118 113.111 301.218 108.821 293.723 111.071ZM294.565 120.673L251.583 200.535L171.19 157.713L294.565 120.673ZM192.689 252.693L166.66 165.994L223.155 196.086L192.689 252.693ZM201 257.166L231.485 200.523L251.293 211.074C253.586 212.296 256.436 211.434 257.668 209.146L268.083 189.793L324.419 220.113L201 257.166ZM328.892 211.802L272.556 181.482L302.876 125.146L328.892 211.802Z" fill="#F2EDDC"/>
</g>
</svg>
